<svg id="Layer_1" data-name="Layer 1" xmlns="http://www.w3.org/2000/svg" viewBox="0 0 3177.76 574.05"><defs><style>.cls-1{fill:none;stroke:#000;stroke-miterlimit:10;stroke-width:38px;}.cls-2{fill:#03ef62;}.cls-3{fill:#05192d;}</style></defs><title>hbcfavicon1</title><polyline class="cls-1" points="0 141 185 141 185 539 76 468"/><polyline class="cls-1" points="549 539 364 539 364 141 473 212"/><polygon points="1256.45 118.97 1272.52 156.97 1429.05 156.97 1429.05 500.92 1371.1 463.17 1329.09 481.16 1467.05 571.03 1467.05 118.97 1256.45 118.97"/><polygon points="1820.55 561.03 1804.48 523.03 1647.95 523.03 1647.95 179.08 1705.9 216.83 1747.91 198.84 1609.95 108.97 1609.95 561.03 1820.55 561.03"/><polygon class="cls-2" points="2952.06 260.39 2957.86 274.08 3014.23 274.08 3014.23 397.96 2993.36 384.36 2978.23 390.84 3027.92 423.21 3027.92 260.39 2952.06 260.39"/><polygon class="cls-2" points="3155.24 419.61 3149.45 405.92 3093.07 405.92 3093.07 282.04 3113.95 295.64 3129.07 289.16 3079.39 256.79 3079.39 419.61 3155.24 419.61"/><rect class="cls-2" x="2958.42" width="99" height="99"/><rect class="cls-2" x="3134.87" y="143.28" width="16" height="16"/><polygon class="cls-3" points="3135.48 145.49 3135.9 146.49 3140 146.49 3140 155.5 3138.48 154.51 3137.38 154.98 3141 157.34 3141 145.49 3135.48 145.49"/><polygon class="cls-3" points="3150.26 157.07 3149.84 156.08 3145.74 156.08 3145.74 147.07 3147.26 148.06 3148.36 147.58 3144.74 145.23 3144.74 157.07 3150.26 157.07"/><rect class="cls-3" x="3121.48" y="64.24" width="56.28" height="56.28"/></svg>