<svg id="Layer_1" data-name="Layer 1" xmlns="http://www.w3.org/2000/svg" viewBox="0 0 3155.24 574.05"><defs><style>.cls-1{fill:none;stroke:#000;stroke-miterlimit:10;stroke-width:38px;}.cls-2{fill:#03ef62;}</style></defs><title>hbclogo1</title><polyline class="cls-1" points="0 141 185 141 185 539 76 468"/><polyline class="cls-1" points="549 539 364 539 364 141 473 212"/><polygon points="1256.45 118.97 1272.52 156.97 1429.05 156.97 1429.05 500.92 1371.1 463.17 1329.09 481.16 1467.05 571.03 1467.05 118.97 1256.45 118.97"/><polygon points="1820.55 561.03 1804.48 523.03 1647.95 523.03 1647.95 179.08 1705.9 216.83 1747.91 198.84 1609.95 108.97 1609.95 561.03 1820.55 561.03"/><polygon class="cls-2" points="2952.06 260.39 2957.86 274.08 3014.23 274.08 3014.23 397.96 2993.36 384.36 2978.23 390.84 3027.92 423.21 3027.92 260.39 2952.06 260.39"/><polygon class="cls-2" points="3155.24 419.61 3149.45 405.92 3093.07 405.92 3093.07 282.04 3113.95 295.64 3129.07 289.16 3079.39 256.79 3079.39 419.61 3155.24 419.61"/><rect class="cls-2" x="2958.42" width="99" height="99"/></svg>