<?xml version="1.0" encoding="utf-8"?>
<!-- Generator: Adobe Illustrator 21.0.0, SVG Export Plug-In . SVG Version: 6.00 Build 0)  -->
<svg version="1.1" id="Layer_1" xmlns="http://www.w3.org/2000/svg" xmlns:xlink="http://www.w3.org/1999/xlink" x="0px" y="0px"
	 viewBox="0 0 500 500" style="enable-background:new 0 0 500 500;" xml:space="preserve">
<style type="text/css">
	.st0{fill:none;stroke:#000000;stroke-width:38;stroke-miterlimit:10;}
	.st1{fill:#03EF62;}
</style>
<g>
	<polyline class="st0" points="-4146.7,361.7 -3961.7,361.7 -3961.7,759.7 -4070.7,688.7 	"/>
	<polyline class="st0" points="-3597.7,759.7 -3782.7,759.7 -3782.7,361.7 -3673.7,432.7 	"/>
</g>
<g>
	<polygon points="-2890.3,339.7 -2874.2,377.7 -2717.7,377.7 -2717.7,721.6 -2775.6,683.9 -2817.6,701.9 -2679.7,791.7 
		-2679.7,339.7 	"/>
	<polygon points="-2326.2,781.7 -2342.3,743.7 -2498.8,743.7 -2498.8,399.8 -2440.8,437.5 -2398.8,419.6 -2536.8,329.7 
		-2536.8,781.7 	"/>
</g>
<g>
	<polygon class="st1" points="26.6,75.9 55.9,123 161.1,123 161.1,352.6 127.2,331.2 75.1,353.5 208.2,439.5 208.2,75.9 	"/>
	<polygon class="st1" points="473.4,424.1 444.1,377 338.9,377 338.9,147.4 372.8,168.8 424.9,146.5 291.8,60.5 291.8,424.1 	"/>
</g>
</svg>
