<svg id="Layer_1" data-name="Layer 1" xmlns="http://www.w3.org/2000/svg" viewBox="0 0 4432.36 1588.54"><defs><style>.cls-1{fill:#03ef62;}.cls-2{fill:#fff;}.cls-3{fill:#05192d;}.cls-4{fill:#007cc9;}.cls-5{fill:#0e3956;}.cls-6{fill:#12232f;}.cls-7{fill:#09507c;}.cls-8{fill:#0566a3;}.cls-9{fill:#4ca9d9;}.cls-10{fill:#203647;}.cls-11{fill:#effbfd;}</style></defs><title>cfdlogo1</title><rect class="cls-1" x="4213.02" y="1065.04" width="99" height="99"/><rect class="cls-2" x="4389.47" y="1208.32" width="16" height="16" rx="3.73" ry="3.73"/><rect class="cls-3" x="4376.08" y="1129.27" width="56.28" height="56.28"/><polyline class="cls-4" points="1524.92 1220.04 1376.65 1252.46 1412.54 1499.08 1524.92 1587.04"/><polygon class="cls-2" points="1437.63 1518.72 1456.52 1533.51 1425.57 1241.76 1404.24 1246.43 1437.63 1518.72"/><polyline class="cls-5" points="1535.29 1220.04 1683.56 1252.46 1647.67 1499.08 1535.29 1587.04"/><polyline class="cls-4" points="2787.92 1221.54 2639.65 1253.96 2675.54 1500.58 2787.92 1588.54"/><polygon class="cls-2" points="2700.64 1520.22 2719.52 1535.01 2688.57 1243.26 2667.24 1247.93 2700.64 1520.22"/><polyline class="cls-5" points="2798.29 1221.54 2946.56 1253.96 2910.67 1500.58 2798.29 1588.54"/><polyline class="cls-4" points="4305.51 1308.04 4227.14 1325.18 4246.11 1455.54 4305.51 1502.04"/><polygon class="cls-2" points="4259.38 1465.92 4269.36 1473.74 4253 1319.52 4241.72 1321.99 4259.38 1465.92"/><polyline class="cls-5" points="4311 1308.04 4389.37 1325.18 4370.4 1455.54 4311 1502.04"/><polyline class="cls-4" points="4397.29 1210.66 4392.24 1211.77 4393.46 1220.17 4397.29 1223.17"/><polygon class="cls-2" points="4394.32 1220.84 4394.96 1221.35 4393.91 1211.4 4393.18 1211.56 4394.32 1220.84"/><polyline class="cls-5" points="4397.65 1210.66 4402.7 1211.77 4401.48 1220.17 4397.65 1223.17"/><rect class="cls-6" x="369.1" y="375.04" width="100" height="100"/><rect class="cls-4" x="369.1" y="495.04" width="100" height="100"/><rect class="cls-6" width="100" height="100"/><rect class="cls-5" x="225" y="4.18" width="100" height="100"/><rect class="cls-7" x="450" y="8.36" width="100" height="100"/><rect class="cls-8" x="675" y="12.54" width="100" height="100"/><rect class="cls-4" x="900" y="16.72" width="100" height="100"/><rect class="cls-9" x="369.1" y="647.04" width="100" height="100"/><rect class="cls-10" x="369.1" y="807.04" width="100" height="100"/><rect class="cls-11" x="369.1" y="961.04" width="100" height="100"/></svg>